<svg width="1004.7px" height="358.1px" viewBox="0 0 158 40" version="1.1" xmlns="http://www.w3.org/2000/svg" fill="#fff">
	<g clip-path="url(#clip0_6085_25562)">
		<path fill-rule="evenodd" clip-rule="evenodd" d="M51.8599 11.3441V18.0536L51.7367 20.1218H51.8599C52.2792 19.4165 52.9328 18.8068 53.8331 18.3168C54.7115 17.8276 55.7009 17.5723 56.7063 17.5755C58.6056 17.5755 60.0606 18.1373 61.0593 19.2731C62.0581 20.4088 62.5638 21.9269 62.5638 23.8278V32.7981C62.5795 32.822 62.588 32.8499 62.5884 32.8784C62.5884 33.1056 61.935 33.7869 61.1457 33.7869C60.3945 33.7869 59.7839 33.1883 59.7104 32.9261H59.6907V24.2465C59.6907 21.4969 58.4288 20.1221 55.905 20.1221C55.3455 20.111 54.7911 20.2306 54.2859 20.4713C53.7806 20.712 53.3385 21.0673 52.9947 21.5088C52.2509 22.4091 51.853 23.5453 51.8725 24.7129V32.8207C51.8806 32.8387 51.8848 32.8582 51.8849 32.8779C51.8849 33.105 51.2314 33.7863 50.4422 33.7863C49.7133 33.7863 49.1004 33.2054 49.0106 32.9376H48.999V11.2039H49.0102C49.0985 10.936 49.7019 10.3552 50.442 10.3552C51.2313 10.3552 51.8847 11.0366 51.8847 11.2638C51.8843 11.2924 51.8757 11.3202 51.8599 11.3441ZM71.8134 29.1622L71.8125 29.1604C71.7139 28.9453 72.0223 28.0845 72.7128 27.8095C73.4157 27.5226 74.2419 27.9171 74.3405 28.1443L74.3423 28.1486L74.3529 28.1443C75.1544 30.0091 76.5479 30.9424 78.5087 30.9424C79.4089 30.9424 80.1365 30.7511 80.716 30.3685C81.2955 29.9859 81.5792 29.472 81.5792 28.8505C81.5792 27.8821 80.8764 27.2245 79.4828 26.878L76.3876 26.1486C75.372 25.8862 74.4226 25.4138 73.6007 24.7619C73.1767 24.4427 72.8355 24.0264 72.6059 23.5479C72.3764 23.0694 72.265 22.5428 72.2814 22.0123C72.2814 20.6974 72.8857 19.6335 74.0817 18.8083C75.2778 17.983 76.6962 17.5769 78.3485 17.5769C79.6145 17.5543 80.8644 17.8634 81.974 18.4735C83.0083 19.0413 83.8143 19.9495 84.2553 21.0439C84.2601 21.0514 84.2643 21.0593 84.2676 21.0676C84.3417 21.2829 84.0211 22.1196 83.3428 22.3707C82.6844 22.6215 81.9365 22.2528 81.7932 22.0315L81.7521 22.048C81.1971 20.7329 80.0255 20.0755 78.2498 20.0755C77.399 20.0755 76.6715 20.2428 76.0919 20.5895C75.5123 20.9361 75.2164 21.4025 75.2164 21.9883C75.2164 22.837 75.8947 23.4227 77.251 23.7216L80.2846 24.4151C81.7274 24.7379 82.7879 25.2995 83.4785 26.0887C84.1459 26.816 84.5156 27.7675 84.5144 28.7546C84.5144 30.0816 83.9471 31.2048 82.8249 32.0899C81.7028 32.975 80.2476 33.4169 78.4841 33.4288C76.77 33.4288 75.3518 33.0228 74.2419 32.2094C73.161 31.4414 72.3121 30.3909 71.788 29.1729L71.8134 29.1622ZM89.563 22.1319C89.5663 22.1601 89.5613 22.1886 89.5485 22.2138C89.4376 22.4168 88.5496 22.7877 87.8221 22.4768C87.1105 22.1724 86.8235 21.3428 86.9152 21.1163L86.9096 21.114C87.2671 20.2175 87.9576 19.3925 89.0059 18.6394C90.0541 17.8862 91.4228 17.5036 93.1371 17.5036C95.0978 17.5036 96.7256 18.0655 98.0203 19.1774C99.315 20.2892 99.9565 21.8552 99.9565 23.8756V32.7477C99.9645 32.766 99.9687 32.7857 99.9688 32.8057C99.9688 33.0327 99.3521 33.7142 98.5877 33.7142C97.8817 33.7142 97.302 33.1333 97.2172 32.8654H97.2066V30.7974H97.0834C95.9365 32.495 94.2593 33.3437 92.0526 33.3676C90.4248 33.3676 89.0683 32.9134 87.9708 32.0048C86.8733 31.0962 86.3307 29.8888 86.3307 28.3948C86.3307 26.769 86.9719 25.5019 88.2667 24.5818C89.5616 23.6618 91.1518 23.1951 93.0511 23.1951C94.7405 23.1951 96.1216 23.494 97.2069 24.1037V23.6732C97.2069 22.5734 96.8246 21.7008 96.0471 21.0433C95.2502 20.3765 94.2372 20.0237 93.1985 20.051C92.4049 20.0401 91.6224 20.238 90.9294 20.6249C90.3114 20.9515 89.8277 21.4849 89.563 22.1319ZM105.947 32.8196C105.955 32.8379 105.959 32.8576 105.96 32.8776C105.96 33.1048 105.343 33.786 104.578 33.786C103.873 33.786 103.293 33.2051 103.208 32.9373H103.197V11.2039H103.209C103.299 10.936 103.912 10.3552 104.64 10.3552C105.429 10.3552 106.083 11.0366 106.083 11.2638C106.083 11.2834 106.079 11.3028 106.071 11.3208V18.0658L105.947 20.1341H106.071C106.527 19.4049 107.23 18.8071 108.155 18.3171C109.126 17.8177 110.207 17.5671 111.299 17.5877C113.285 17.5877 114.986 18.3408 116.429 19.8591C117.872 21.3773 118.587 23.2542 118.587 25.5017C118.587 27.7492 117.872 29.6261 116.429 31.1443C114.999 32.6626 113.285 33.4157 111.299 33.4157C110.207 33.4363 109.126 33.1857 108.155 32.6865C107.217 32.208 106.527 31.5991 106.071 30.8693H105.947V32.8196ZM66.1523 18.0658C66.1523 17.8267 66.7937 17.1574 67.5952 17.1574C68.3845 17.1574 69.0379 17.8388 69.0379 18.0658C69.0378 18.0847 69.0336 18.1033 69.0256 18.1203V32.9373H68.999C68.9006 33.218 68.3031 33.786 67.5829 33.786C66.8626 33.786 66.2651 33.218 66.1666 32.9373H66.1521L66.1523 18.0658ZM69.2106 15.328V17.0256C69.0336 16.7576 68.7914 16.539 68.5066 16.3905C68.2218 16.242 67.9039 16.1685 67.5829 16.1769C66.4854 16.1769 65.955 17.1451 65.955 17.1451V15.328L67.5829 13.3914L69.2106 15.328ZM90.2731 30.2357C90.9303 30.6587 91.6991 30.8752 92.4804 30.8574C93.6767 30.8574 94.7495 30.427 95.7236 29.5662C96.6978 28.7055 97.1788 27.6895 97.1788 26.5179C96.3648 25.8722 95.144 25.5495 93.5163 25.5495C92.1229 25.5495 91.0622 25.8485 90.3594 26.4339C89.6565 27.0194 89.2989 27.7131 89.2989 28.5021C89.2989 29.2316 89.6319 29.8054 90.2731 30.2357ZM107.377 29.4109C107.825 29.8733 108.361 30.2407 108.953 30.4913C109.546 30.7419 110.183 30.8704 110.826 30.8693C111.47 30.8682 112.106 30.7374 112.698 30.4848C113.29 30.2321 113.825 29.8628 114.271 29.3989C115.232 28.4187 115.713 27.1156 115.713 25.5017C115.713 23.8878 115.232 22.5847 114.271 21.6045C113.825 21.1406 113.29 20.7713 112.698 20.5186C112.106 20.266 111.47 20.1352 110.826 20.134C110.183 20.1329 109.546 20.2615 108.953 20.5121C108.361 20.7626 107.825 21.1301 107.377 21.5925C106.428 22.5608 105.959 23.8639 105.959 25.5017C105.959 27.1395 106.428 28.4426 107.377 29.4109ZM127.291 25.9104C127.291 21.0208 129.808 17.5037 134.497 17.5037C138.271 17.5037 139.815 19.5914 140.53 21.3925C140.583 21.5294 140.612 21.6745 140.616 21.8214C140.616 22.3648 140.187 22.7079 139.758 22.8797C139.553 22.9363 139.342 22.9651 139.129 22.9656C138.913 22.9791 138.699 22.9222 138.519 22.8036C138.339 22.685 138.202 22.5111 138.129 22.3079C137.585 20.8497 136.727 19.7345 134.554 19.7345C131.581 19.7345 129.951 22.2507 129.951 25.8817C129.951 29.6274 131.552 32.0007 134.583 32.0007C136.813 32.0007 137.7 30.9142 138.243 29.3701C138.443 28.8268 138.843 28.598 139.301 28.598C139.507 28.5944 139.712 28.6334 139.902 28.7126C140.417 28.827 140.817 29.17 140.817 29.6847C140.817 29.8626 140.778 30.0383 140.703 30.1993C139.931 32.1724 138.415 34.2311 134.526 34.2311C129.893 34.2311 127.291 30.8284 127.291 25.9103V25.9104ZM150.186 17.5037C154.76 17.5037 157.448 20.8207 157.448 25.7966C157.448 30.7725 154.703 34.2031 150.243 34.2031C145.524 34.2031 142.779 30.8863 142.779 25.7966C142.78 20.8491 145.554 17.5036 150.186 17.5036V17.5037ZM150.421 19.8865C147.333 19.8865 145.559 22.2599 145.559 26.0626C145.559 29.6941 147.275 32.1818 150.221 32.1818C153.337 32.1818 154.967 29.7514 154.967 25.9477C154.967 22.3451 153.337 19.8865 150.421 19.8865ZM123.263 30.3175C124.358 30.3175 125.201 31.1039 125.201 32.2275C125.201 33.4072 124.358 34.1936 123.263 34.1936C122.167 34.1936 121.325 33.407 121.325 32.2275C121.325 31.104 122.167 30.3175 123.263 30.3175Z" />
		<path d="M36.9728 6.22333C27.2718 6.73699 20.8426 12.2219 20.8426 12.2219L19.7366 13.2495L18.5499 12.2219C11.7869 7.02739 2.30431 6.22333 2.30431 6.22333C2.30431 6.22333 0 6.3238 0 8.72525V32.3931C0.103661 33.5993 1.25582 34.3477 2.29286 34.4818C12.0057 35.7885 15.9806 38.9495 18.8148 39.9995C18.8148 39.9995 19.5977 39.91 19.8518 39.3517C20.163 39.8881 20.8771 39.9995 20.8771 39.9995C24.76 38.5475 26.8793 35.4981 36.9728 34.4818C37.5522 34.4323 38.1022 34.2051 38.5477 33.8313C38.9931 33.4574 39.3123 32.9552 39.4615 32.3931V8.72525C39.4615 6.56954 36.9728 6.22333 36.9728 6.22333ZM36.9728 32.3931C36.9728 32.3931 28.9422 32.5494 20.8771 37.8444V30.2709H18.665V37.7543C18.665 37.7543 11.9249 33.2085 2.29286 32.3931V8.72525C2.29286 8.72525 12.0632 8.94867 18.5728 15.2928V22.7764H20.8771V15.2928C20.8771 15.2928 27.2602 8.72525 36.9728 8.72525V32.3931ZM2.40797 3.61006V1.33112C2.40797 0.381791 3.22595 0.53808 3.22595 0.53808C10.5883 2.47037 15.7385 8.50184 15.7385 8.50184C8.83711 4.32452 2.40797 3.61006 2.40797 3.61006ZM11.8788 3.26385V0.761494C11.9941 -0.344269 12.9273 0.0800875 12.9273 0.0800875C17.6391 3.22978 19.7135 9.75272 19.7135 9.75272C19.7135 9.75272 21.776 3.25225 26.4997 0.113578C26.4997 0.113578 27.433 -0.310924 27.5482 0.794984V3.28574C27.5482 3.28574 23.5387 6.01137 19.7135 10.881C15.8768 5.99992 11.8788 3.26342 11.8788 3.26342V3.26385ZM23.6884 8.50227C23.6884 8.50227 28.8386 2.4927 36.2015 0.560407C36.2015 0.560407 37.0196 0.403973 37.0196 1.35345V3.62079C37.0196 3.62079 30.5898 4.34685 23.6884 8.50184V8.50227Z" />
	</g>
	<defs>
		<clipPath id="clip0_6085_25562">
			<rect width="1004.7px" height="358.1px" fill="#fff"/>
		</clipPath>
	</defs>
</svg>
